<?xml version="1.0" encoding="UTF-8"?>
<svg id="Layer_2" xmlns="http://www.w3.org/2000/svg" version="1.1" viewBox="0 0 342.4 265.4">
  <!-- Generator: Adobe Illustrator 29.0.1, SVG Export Plug-In . SVG Version: 2.1.0 Build 192)  -->
  <defs>
    <style>
      .st0 {
        fill: #fff;
      }
    </style>
  </defs>
  <path class="st0" d="M267.7,131.7l-5.5,1.8c-1.5,38.5-26.6,73.9-65.3,86.7-38.7,12.7-79.9-.9-104-31l-5.5,1.8c25.3,32.9,69.6,48,111.2,34.3h0c41.6-13.7,68.3-52.1,69.1-93.6Z"/>
  <path class="st0" d="M135.8,34.2c-40,13.1-66.1,49.1-68.9,88.7l5.6-1.8c3.4-36.6,27.9-69.5,65-81.7h0c37.1-12.2,76.3-.3,100.8,27.1l5.6-1.8c-25.7-30.2-68.1-43.6-108.1-30.5Z"/>
  <path class="st0" d="M288.1,125.3c0,0-.1-.2-.2-.2l-13.7,4.5c.1,45.1-28.5,87.1-73.6,101.9-45.1,14.8-93.1-2-119.7-38.3l-13.7,4.5c0,0,0,.2,0,.3,0,10.2,7.5,18.9,17.7,20.5,7.2,1.1,13.2,5.9,16,12.5,4,9.4,14.2,14.6,24.2,12.2,7-1.7,14.5.4,19.6,5.5,7.3,7.2,18.7,8.1,27,2,5.8-4.3,13.5-5.2,20.2-2.5,9.5,3.9,20.4.3,25.7-8.5,3.8-6.2,10.5-10,17.7-10,10.2,0,18.9-7.5,20.5-17.7,1.1-7.2,5.9-13.2,12.5-16,9.4-4,14.6-14.2,12.2-24.2-1.7-7,.4-14.5,5.5-19.6,7.2-7.3,8.1-18.7,2-27h0Z"/>
  <path class="st0" d="M60.2,125.1h0c1.9-43.2,30-82.7,73.5-97,43.5-14.3,89.6.8,116.7,34.4l16.1-5.3c-1.8-8.2-8.5-14.7-17.1-16.1-7.2-1.1-13.2-5.9-16-12.5-4-9.4-14.2-14.6-24.2-12.2-7,1.7-14.5-.4-19.6-5.5-7.3-7.2-18.7-8.1-27-2-5.8,4.3-13.5,5.2-20.2,2.5-9.5-3.9-20.4-.3-25.7,8.5-3.8,6.2-10.5,10-17.7,10-10.2,0-18.9,7.5-20.5,17.7-1.1,7.2-5.9,13.2-12.5,16-9.4,4-14.6,14.2-12.2,24.2,1.7,7-.4,14.5-5.5,19.6-6.1,6.2-7.7,15.4-4.2,23.1l16.1-5.3Z"/>
  <polygon class="st0" points="148.1 71.6 147.3 77.6 141.9 80.2 147.4 82.7 148.2 88.6 152.3 84.3 158.2 85.4 155.3 80.1 158.1 74.8 152.2 75.9 148.1 71.6"/>
  <polygon class="st0" points="165.4 77.7 166 81.9 168.9 78.9 173.1 79.6 171 75.9 173.1 72.1 168.9 72.9 165.9 69.9 165.4 74.1 161.6 75.9 165.4 77.7"/>
  <polygon class="st0" points="132.7 80.8 132.1 85 128.3 86.9 132.2 88.7 132.7 92.9 135.7 89.8 139.8 90.5 137.8 86.8 139.8 83.1 135.6 83.9 132.7 80.8"/>
  <path class="st0" d="M204.7,180c4.4,4.8,10.9,6.4,12.9-1.5,0-.1.2-.8.2-.9-4,2.4-9.3,1.1-12.6-1.8,2.9-2,5-5.2,6-8.6.7-2.3,1.5-6.8-1.4-7.9-2.9-1.1-5.5,1.7-6.7,4h0c-1-1.8-3.8-1.8-5.4-.8-.2,3.1-.4,6.1-.4,9.2,0,2.8.3,8.7,2.6,10.4,1.2,1,2.7.4,3.9-.4-.8-.8-.9-2.1-1-3.2,0-.3-.1-.8,0-1.1.5.9,1.2,1.7,1.9,2.5ZM202.7,174.2h0s0-1,0-1.1c0-1.8,0-4.1.5-5.8.3-1,1.2-3.5,2.4-3.7.9-.2,1,1.3,1,1.9.1,3.1-1.4,6.6-3.8,8.7Z"/>
  <path class="st0" d="M224,174.9c1.9-1,3.2-3.2,3.9-5.1.1,0,.1,0,.1.1,1.1,2.1,2.2,3.3,4.7,2.2,1.6-.7,3-2.6,2.7-4.4h0c-1,.3-1.9.4-2.5-.5-.2-.3-.5-.9-.5-1.2,0-.1,1.1-1.8,1.3-2.1,1.6-2.9,3.8-8.5,1.1-11.4-1.6-1.7-4-1.4-5.6.1-2.4,2.2-2.1,6-2.4,8.9-2.3-1.1-5,1-6.3,2.8-1.4,1.8-2.1,4.4-1.9,6.6.3,2.9,2.1,5.8,5.3,4.1ZM233.9,155.4c.5.6.2,2.3,0,3-.3,1.7-.9,3.5-1.8,5,0-2.2,0-4.4.5-6.6,0-.5.4-2.4,1.2-1.5ZM226.9,163.5h0c0,.9.3,2,.2,2.8,0,.8-1.2,3.2-1.7,3.8-1.2,1.3-2,.2-2.2-1.1-.4-2.4,1.2-5,3.7-5.4Z"/>
  <path class="st0" d="M142.8,201.8c2.7-.7,4.3-4.6,5-7.1.2-.1.1.2.2.4.8,2.6,2.1,5.1,5.1,3.2.2-.1,1-.7.9-.9,0-.2-.4-.5-.6-.8-.5-1-.5-2.6-.6-3.7-.1-1.7,0-3.4-.2-5.1-1.1-1.7-3.7-1.7-5.3-.7-.5,2.7-1,5.3-1.8,7.9-.2.7-.5,1.6-.8,2.3,0,.1-.4.7-.6.7h0c-.2-.3-.2-.6-.3-.9-.2-1.6,0-3.5-.2-5.2,0-.9,0-1.2-.7-1.9-1.3-1-3.4-.8-4.7,0-.2,3.1-.2,6.5,1,9.4.6,1.4,1.9,2.8,3.6,2.4Z"/>
  <path class="st0" d="M128.9,198.4h0c-.9-1.2-2.6-.9-3.7,0-2,1.6-1.1,5.9.4,7.6,2.6,2.9,6.4,1.4,8.7-1.1,4.1-4.4,3.2-12.8,2-18.3-.2-.9-.2-1.4-1-1.9-1.3-.9-3.4-.8-4.6,0,1.2,4.1,1.9,8.6,1.8,12.9,0,1.9-.5,7.1-2.7,7.8-.8.3-1.5-1.1-1.7-1.7-.6-1.5-.9-4.4.7-5.4Z"/>
  <path class="st0" d="M241.7,169.2c2-.6,5.3-2.4,5.9-4.7.1-.4.1-1.2-.5-.9-.3.1-.6.7-.9,1-1.2,1.4-3,2.2-4.5.6,2.1-1.3,4.9-4.2,4.4-6.9-.9-4.3-5.9-3-8.4-1-4.7,4-2.8,13.9,4,11.8ZM241.8,158.7c.4-.1.8,0,1,.4.4,1.1-.9,3.6-1.6,4.5,0,.1-.2.3-.3.3,0-.3-.2-.6-.3-.9-.2-1.1,0-3.9,1.2-4.3Z"/>
  <path class="st0" d="M172,177.4h0s-.4-1.2-.4-1.2c0,0-.3-.4-.4-.4-.3-.2-.9-.2-1.3-.2-.1,0-.6.2-.6,0,0-.1,0-.9,0-1.1,0-.1-.2-.3-.3-.4-1.2-1.2-3.7-1.1-5-.2l-.2,3.4-2.9.8c-.2,1.7.6,2.2,2.2,2,.1,0,.6-.2.6,0,0,2,0,4,.2,5.9.2,2.4,1,8.6,4.8,7.2.2,0,1.3-.6,1.3-.8-.8-1-.8-2.4-.9-3.7-.2-3.5.1-7,.2-10.4l2.8-.9Z"/>
  <path class="st0" d="M155.6,194.7c-.5-.1-1-.7-1.2,0-.6,2,2,2.2,3.3,2,1.9-.2,6.2-1.8,6.3-4.1,0-2.8-5.2-1.5-5.6-4.2-.1-.7.4-2.5,1.1-2.7.8-.2.6,1.4.4,1.8-.2.4-.7.8-.1.9,2.7.8,5.1-4.2,2.7-5.9-1.2-.9-3.3-.4-4.6.2h0c-2.8,1.2-5.7,4.2-4.9,7.5.6,2.6,3.3,2.7,5.4,3.3.3,0,1,.3.7.7-.5.7-2.8.7-3.6.5Z"/>
  <path class="st0" d="M181.7,173.3c-6.2,2.7-6.7,11.6-.9,15.1,5.9,3.6,13.4-.8,13.1-7.7-.3-6.2-6.5-9.8-12.1-7.4ZM187.3,175.1s.1,0,.2,0c0,0,.1.1.2.1-.2,0-.2,0-.4-.1h0c-3.8-.9-7.6.9-8.3,4.9-1.2,6.7,7.3,10.4,11.7,4.5,1.7-3.2,1-6.3-1.8-8.6-.2,0-.2-.1-.3-.2-.3-.1-.6-.3-.9-.5.5.1.5.2.9.5,0,0,.2,0,.2,0,0,0,0,.1.1.1,2.8,1.6,3.7,6,1.8,8.6h0c-1.6,3-5.7,3.9-8.6,2.2-3.9-2.3-4.4-7.9-.8-10.7,1.6-1.3,4.1-1.8,6-1ZM188.5,176q.3.2.5.4c2.1,1.4,3,4.6,1.9,6.9h0c-1.7,5.8-10.8,5.2-11.8-1.3-.6-4.3,3.8-8.3,7.9-6.6.6.1.9.3,1.4.6Z"/>
  <path class="st0" d="M187.1,175.3c-3.6-.8-7.2,1-7.8,4.7-1.1,6.9,8.3,10.1,11.6,3.2.8-2.7.1-5-1.9-6.9-.2-.1-.4-.2-.5-.4-.4-.2-.9-.5-1.4-.6h0ZM191,182.2c-.8,4.2-5.7,6.2-9.1,3.7-3.8-2.7-3.1-8.5,1.2-10.2h0c4.2-1.7,8.7,2,7.9,6.5Z"/>
  <path class="st0" d="M219,175.2c-.9-.5-1.1-2-1.2-3-.2-2,0-4.5-.4-6.3,0-.3-.1-.4-.3-.6-.9-1-2.8-.8-3.9-.3h0c-.2,0-.9.4-.9.6,0,2.1-.1,4.3.2,6.4.3,1.6.9,4.5,2.5,5.2,1.3.6,3.4-.1,4.4-1.2.6-.6,0-.5-.4-.7Z"/>
  <path class="st0" d="M213.5,158.2c-2.1,1-2.5,4-.3,5.2,2.8,1.5,6.5-1.6,4.5-4.4-.9-1.3-2.8-1.4-4.2-.8Z"/>
  <path class="st0" d="M182.8,176.1h0c-3.6,1.6-4.2,6.6-1.3,9.2,2.9,2.6,7.7,1.4,9-2.3,1.6-4.8-3.1-8.9-7.7-6.9ZM182.9,176.2s.2-.1.2-.1c.2,0,.8-.3.9-.3h0s.1,0,.1.1c0,0,0,1.6,0,1.7,0,0,0,.3,0,.2-.2-.5-1-1.1-1.2-1.5,0-.1,0,0,0-.1ZM182.6,176.4h0c.3.5,1.4,1.4,1.5,1.9,0,0,0,.9,0,.9,0,0-.5.4-.6.4,0,0-.9-.2-.9-.2l-1.6-1.8c.1-.3,1.3-1.3,1.5-1.2ZM184,182.9l-.5.2v-.5c.3,0,.4.1.5.3ZM183.5,179.8l-.2.3-.4-.4c0,0,.6,0,.6.1ZM181,177.8l1.3,1.5-2-.3c0,0,.6-1.3.7-1.2ZM180.2,179.2h0c.1,0,2.1.4,2.3.4.1,0,.6.6.6.7,0,0,0,.6-.1.6,0,.2-.8.5-.9.5l-2.3-.4c-.1,0,.1-1.8.3-1.9ZM183.1,181.7h-.6c0-.1.5-.4.5-.4h0s0,.4,0,.4ZM179.8,181.3l2,.3c.1,0,0,.1,0,.1-.5.4-1.1.6-1.7,1-.2-.5-.2-.9-.3-1.4ZM180.2,182.9c.6-.2,1.6-1.2,2.2-1.2,0,0,.8.1.8.1h0c0,0,.3.6.3.7,0,0-.3.8-.3.8,0,.1-2,1.3-2.1,1.2-.3-.5-.7-1-.9-1.7ZM181.2,184.7l1.8-1-.7,1.9c-.4-.3-.8-.6-1.1-.9ZM184.4,186.4s-.1,0-.2,0c-.2,0-1.6-.5-1.6-.6,0-.2.7-1.8.8-2.2,0-.1.7-.6.9-.6,0,0,.5.2.5.2.3.2.3.6.4.9l-.7,2.3h0ZM184.4,178.5l.4.4h-.4c0,0,0-.3,0-.4ZM185,183.3h.5s0,0,0,0l-.2.6-.2-.5ZM184.5,186.5l.6-2,.4.7.4,1.3h-1.4ZM188.1,185.6l-.7-1.9c.4.2.8.4,1.1.6.1,0,.7.4.7.5-.4.3-.6.7-1.1.8ZM189.5,184.5c0,0-.2,0-.2,0h0s-1.9-1.1-1.9-1.1c0-.3-.4-.6-.4-.9,0,0,.3-.5.3-.5.1-.1.8-.2,1-.2l2,1.1c0,.2-.7,1.5-.8,1.6ZM186.5,183l.3-.3c.3.7.2.6-.3.3ZM187.1,179.9h.5c0,0-.4.7-.5,0ZM187.5,181.3l.5.3c-.5.1-.7.3-.5-.3ZM190.4,182.6c-.1.2-.1,0-.2,0-.1,0-1.6-.8-1.5-.9l2-.4c0,0-.1,1.2-.2,1.3ZM190.6,181.2l-2.3.4s-.9-.4-.9-.5c0,0,0-.6,0-.7,0-.2.6-.7.8-.8.6-.2,1.5-.2,2.2-.4.1.3.4,1.7.2,1.9ZM190.3,179.1h0c-.6,0-1.2.3-1.8.3,0,0-.2,0-.2,0l1.3-1.5c.1,0,.7,1.1.7,1.3ZM189.4,177.7l-1.4,1.7c-.2,0-.8.3-1,.3,0,0-.4-.4-.5-.5,0,0,0-.9,0-1l1.5-1.8h0c.2,0,1.5,1.1,1.5,1.2ZM186.5,175.9c0,0,1.2.4,1.3.4,0,0,0,.1,0,.2-.3.5-.9,1-1.2,1.4v-2ZM187.2,183.6c0,.6.8,1.7.8,2.2,0,0,0,0,0,.1-.2.2-1.6.7-1.7.6h0s-.8-2.3-.8-2.3c.2-.5.2-1.1.9-1.1,0,0,.7.4.9.5ZM185.9,179l.4-.4v.6c0,0-.4-.2-.4-.2ZM186.2,175.8c0,0,0,2.3,0,2.4,0,0-.5.7-.6.7,0,0-.5,0-.6,0-.1,0-.6-.6-.7-.8v-2.3c.6-.1,1.2,0,1.9,0h0Z"/>
  <path class="st0" d="M18.8,150.2l-5.4,1.7c-1.2,4-3.9,7.2-8,9.7l1.5,4.7.9-.3c2.1-.7,3.5-1,4.2-.8s1.2.5,1.6,1.1c.3.6,1,2.4,2,5.6l6.9,21.6,9.1-2.9-12.9-40.4h0Z"/>
  <path class="st0" d="M52.5,169.3l-4.3-13.5h0c-1-3.1-1.8-5.3-2.6-6.6-.7-1.3-1.7-2.4-2.8-3.3-1.1-.9-2.6-1.4-4.4-1.7-1.8-.3-3.7,0-5.7.6-2.5.8-4.4,2-5.7,3.7-1.4,1.7-2,3.5-2,5.5,0,2,.6,4.9,1.8,8.6l4.5,14.1c.9,2.8,1.8,4.8,2.5,6,.8,1.2,1.8,2.2,3,3.1,1.2.9,2.7,1.4,4.3,1.5,1.6,0,3.5-.2,5.7-.9,1.7-.5,3.1-1.3,4.2-2.2,1.2-1,2-2.2,2.6-3.7.6-1.5.8-3,.6-4.5-.2-1.5-.7-3.8-1.7-6.8ZM44.2,180.6c-.7.2-1.2.1-1.6-.3-.4-.4-.9-1.8-1.7-4.1l-6.3-19.7c-.7-2.1-1-3.4-.9-4.1,0-.6.4-1.1,1.1-1.3.7-.2,1.2,0,1.6.4s.9,1.8,1.6,3.9c0,0,6.4,20,6.4,20,.6,2,.9,3.3.9,3.9,0,.6-.4,1.1-1.1,1.3Z"/>
  <path class="st0" d="M75.7,176.5c1.2-1,2-2.2,2.6-3.7.6-1.5.8-3,.6-4.5-.2-1.5-.7-3.8-1.7-6.8l-4.3-13.5h0c-1-3.1-1.8-5.3-2.6-6.6-.7-1.3-1.7-2.4-2.8-3.3-1.1-.9-2.6-1.4-4.4-1.7s-3.7,0-5.7.6c-2.5.8-4.4,2-5.7,3.7s-2,3.5-2,5.5c0,2,.6,4.9,1.8,8.6l4.5,14.1c.9,2.8,1.8,4.8,2.5,6,.8,1.2,1.8,2.2,3,3.1,1.2.9,2.7,1.4,4.3,1.5,1.6,0,3.5-.2,5.7-.9,1.7-.5,3.1-1.3,4.2-2.2ZM69,172.7c-.7.2-1.2.1-1.6-.3-.4-.4-.9-1.8-1.7-4.1l-6.3-19.7c-.7-2.1-1-3.4-.9-4.1s.4-1.1,1.1-1.3c.7-.2,1.2,0,1.6.4s.9,1.8,1.6,3.9c0,0,6.4,20,6.4,20,.6,2,.9,3.3.9,3.9s-.4,1.1-1.1,1.3Z"/>
  <polygon class="st0" points="90.5 172.6 94 171.5 94.9 125 94.9 125 91.5 126.1 90.5 172.6"/>
  <path class="st0" d="M75.6,147.7c.5,1.7,1.1,2.9,1.8,3.7.6.8,1.6,1.3,2.8,1.6,1.2.3,2.8.2,4.7-.4,1.7-.5,2.9-1.3,3.7-2.3.8-1,1.2-2,1.2-3,0-1-.3-2.4-.8-4.2l-2.2-6.9h0c-.6-1.9-1.2-3.3-1.9-4.1-.7-.8-1.6-1.4-2.9-1.7-1.3-.3-2.8-.2-4.5.4-1.5.5-2.8,1.2-3.6,2.1-.9.9-1.3,1.9-1.4,3,0,1.1.2,2.6.9,4.6l2.3,7.3ZM78.7,134.1c.4-.1.7,0,.9.1.2.2.4.9.8,1.9h0s3.3,10.4,3.3,10.4c.3,1,.4,1.6.4,1.9,0,.3-.2.5-.6.6-.4.1-.8.1-.9,0-.2-.2-.5-.9-.8-2l-3.3-10.2c-.3-1-.5-1.7-.4-2,0-.3.3-.5.7-.7Z"/>
  <path class="st0" d="M98.8,161.7c.5,1.7,1.1,2.9,1.8,3.7.6.8,1.6,1.3,2.8,1.7,1.2.3,2.8.2,4.7-.4,1.7-.5,2.9-1.3,3.7-2.3.8-1,1.2-2,1.2-3,0-1-.3-2.4-.8-4.2l-2.2-7h0c-.6-1.9-1.2-3.3-1.9-4.1s-1.6-1.4-2.9-1.7c-1.3-.3-2.8-.2-4.5.3-1.5.5-2.8,1.2-3.6,2.2s-1.3,2-1.4,3c0,1.1.2,2.6.9,4.6l2.3,7.3ZM101.8,148.2c.4-.1.7,0,.9.1.2.2.4.9.8,1.9h0s3.3,10.3,3.3,10.3c.3,1,.5,1.6.4,1.9s-.2.5-.6.6c-.4.1-.7.1-.9,0-.2-.2-.5-.9-.8-2l-3.3-10.2c-.3-1-.5-1.7-.5-2,0-.3.2-.5.7-.6Z"/>
  <path class="st0" d="M139.2,153l1.8,2.6,6-1.9-6.9-21.7-11.1,3.6,2,6.1,1.9-.6,1.5,4.8c.6,1.9.9,3.2.8,3.9,0,.7-.4,1.2-1.1,1.4-.6.2-1.2,0-1.5-.5-.4-.5-.9-1.7-1.5-3.5l-6.2-19.4c-.7-2.1-1-3.4-.9-3.9,0-.6.4-.9,1-1.1.7-.2,1.2,0,1.6.5.4.5.9,1.9,1.7,4.3l1.2,3.7,9.5-3-.6-1.7c-1.1-3.3-2.1-5.7-3.3-7.3-1.1-1.6-2.8-2.7-5-3.3-2.2-.7-4.8-.6-7.5.3-2.8.9-4.9,2.4-6.2,4.4-1.3,2-1.9,4-1.7,5.8.2,1.9.9,4.7,2.1,8.6l3.8,12c.9,2.8,1.6,4.8,2.3,6.2.6,1.3,1.5,2.5,2.6,3.5,1.1,1,2.5,1.7,4.2,2.2,1.7.4,3.3.4,4.9-.2,1.3-.4,2.4-1.1,3.2-2.1s1.3-2.1,1.6-3.6Z"/>
  <polygon class="st0" points="138.9 128.2 138.9 128.2 138.9 128.2 138.9 128.2"/>
  <path class="st0" d="M154.2,106.9h0s-13.7,4.4-13.7,4.4l8.1,41.9,9.8-3.1-1.7-7.4,3.4-1.1,2.8,7.1,9.7-3.1-18.3-38.6ZM154.2,135.5c-.9-3.6-2.1-9.5-3.6-17.5,2.6,6.6,4.9,12.1,6.9,16.5l-3.3,1Z"/>
  <path class="st0" d="M192,127.6c-1-3.3-1.8-5.2-2.1-5.9-.4-.7-1-1.3-2-2-.9-.7-2.4-.9-4.5-.9,2-.9,3.2-2,3.6-3.3.4-1.3,0-3.5-1-6.7-1.1-3.4-2.4-5.8-3.9-7-1.5-1.3-3.1-1.8-4.8-1.7-1.7.1-4.8.9-9.3,2.3l-6.7,2.1h0s12.9,40.4,12.9,40.4l9.5-3-5.8-18.2c1.3-.4,2.2-.4,2.7,0,.5.4,1.1,1.7,1.7,3.9l4.3,13.4,8.8-2.8-3.4-10.6ZM177.9,116.3c-.3.5-1,.9-2.1,1.2l-2.9-9h0c1.1-.3,1.9-.4,2.5-.1.5.3,1,1,1.4,2.3l.7,2.2c.6,1.8.7,2.9.4,3.4Z"/>
  <path class="st0" d="M206.7,134.6l-1.8-7.4,3.4-1.1,2.8,7.1,9.7-3.1-18.3-38.6h0s-13.7,4.4-13.7,4.4l8.1,41.9,9.8-3.1ZM205.9,119l-3.3,1c-.9-3.6-2.1-9.5-3.6-17.5,2.6,6.6,4.9,12.1,6.9,16.5Z"/>
  <polygon class="st0" points="209.6 89.2 222.5 129.5 230.5 127 224.6 108.7 235.4 125.4 243.8 122.8 230.9 82.4 222.9 84.9 228.7 103.1 217.6 86.6 209.6 89.2"/>
  <polygon class="st0" points="253.8 75.1 253.8 75.1 233 81.7 235.6 89.8 241.2 88 251.6 120.3 261.1 117.2 250.8 84.9 256.4 83.1 253.8 75.1"/>
  <rect class="st0" x="262.2" y="71.8" width="10" height="42.4" transform="translate(-15.6 85.8) rotate(-17.7)"/>
  <polygon class="st0" points="289.1 99.4 286.3 90.5 292.2 88.6 289.8 80.9 283.8 82.8 281.4 75.1 287.7 73.1 285.1 65 269.3 70.1 269.3 70.1 282.2 110.5 298.7 105.2 296.1 97.1 289.1 99.4"/>
  <polygon class="st0" points="312.5 69.7 312.5 69.7 312.5 69.8 312.5 69.7"/>
  <path class="st0" d="M319,87.3c-1.3-4-2.7-6.7-4.4-8.1-1.7-1.4-5.1-2.9-10.2-4.3-1.8-.5-2.9-1-3.5-1.6-.5-.6-1-1.5-1.5-2.9-.3-1.1-.4-1.9-.3-2.5.1-.6.5-1,1.1-1.2.5-.2,1,0,1.3.2.3.3.7,1.2,1.2,2.6l1,3,8.8-2.8-.5-1.6c-1-3.2-2-5.4-3-6.5s-2.5-1.9-4.5-2.2c-2-.3-4.3,0-6.7.7-2.3.7-4.1,1.7-5.4,3.1-1.3,1.3-2.1,2.8-2.4,4.5-.3,1.7.1,4,1.1,7.1.7,2.1,1.5,3.8,2.4,5,.9,1.2,1.9,2.1,2.9,2.6,1,.5,3,1.3,5.9,2.3,2.9,1,4.8,1.7,5.6,2.2.8.5,1.6,2,2.4,4.4.3,1.1.5,1.9.3,2.6s-.5,1.1-1.1,1.3c-.6.2-1.1.1-1.5-.2-.4-.3-.8-1.3-1.3-2.8l-1.6-4.9-8.8,2.8.8,2.6c1,3,2,5.3,3.1,6.7,1.1,1.5,2.7,2.4,4.8,2.9s4.5.3,7-.5c2.3-.7,4.2-1.9,5.7-3.3s2.3-3,2.4-4.6c.2-1.6-.2-3.8-1.1-6.6Z"/>
  <path class="st0" d="M99,96c.8-.2,1.5-.6,2.1-1,.6-.5,1.2-1.1,1.6-1.9h0c.4-.8.7-1.6.8-2.4,0-.8,0-1.6-.2-2.4-.2-.8-.6-1.5-1.1-2.1-.5-.7-1.2-1.2-2-1.7-.8-.5-1.6-.8-2.5-.9-.8-.1-1.6,0-2.4.1-.8.2-1.5.5-2.1,1-.6.5-1.2,1.1-1.6,1.9-.4.8-.7,1.6-.8,2.4,0,.8,0,1.6.2,2.4.2.8.6,1.5,1.1,2.1.5.7,1.2,1.2,2,1.7.8.4,1.6.7,2.4.9.8.1,1.6,0,2.4-.1ZM94.1,92c-.3-.4-.6-.8-.7-1.3-.2-.5-.2-.9-.2-1.4,0-.5.2-.9.4-1.4.3-.4.6-.8.9-1.1.4-.3.8-.5,1.3-.6.5-.1,1-.1,1.5,0,.5,0,1,.3,1.5.6.5.3.9.6,1.3,1s.6.8.7,1.3c.2.5.2.9.2,1.4,0,.5-.2.9-.4,1.4-.2.4-.6.8-.9,1.1-.4.3-.8.5-1.3.6-.5,0-1,.1-1.5,0-.5,0-1-.3-1.5-.6-.5-.3-.9-.6-1.3-1Z"/>
  <path class="st0" d="M113.6,75.2h-2.4c.1.7.1,1.3,0,1.8-.1.5-.4,1-.7,1.4-.4.4-.7.7-1.2.9-.4.2-.9.3-1.4.3-.5,0-1,0-1.4-.3-.5-.2-.9-.5-1.4-.9-.4-.4-.8-.8-1-1.3-.2-.5-.4-.9-.4-1.4,0-.5,0-.9.1-1.4.1-.5.4-.9.7-1.3.4-.4.8-.7,1.3-.9s1.1-.3,1.7-.2l-.2-2.4c-.9,0-1.8,0-2.6.4s-1.5.9-2.2,1.6c-.6.6-1,1.4-1.3,2.1-.3.8-.3,1.6-.3,2.4,0,.8.3,1.6.7,2.3.4.7.9,1.4,1.6,2s1.4,1.1,2.2,1.4,1.6.4,2.4.4c.8,0,1.6-.2,2.3-.6.7-.3,1.4-.9,2-1.5h0c.7-.7,1.1-1.5,1.3-2.4.2-.8.3-1.7,0-2.6Z"/>
  <path class="st0" d="M115.4,71.2c.7.4,1.5.7,2.3.8.8.1,1.6,0,2.4-.1s1.5-.6,2.2-1.1h0c.8-.6,1.4-1.3,1.8-2.1.4-.8.6-1.6.6-2.5l-2.4-.3c0,.6-.1,1.2-.3,1.7-.2.5-.6.9-1,1.3-.4.3-.9.5-1.3.7-.5.1-.9.1-1.4,0-.5,0-.9-.3-1.4-.5-.4-.3-.8-.6-1.2-1.1s-.6-.9-.8-1.4c-.2-.5-.2-1-.2-1.5s.2-.9.4-1.4c.2-.4.5-.8,1-1.1.4-.3.9-.6,1.5-.7.5-.1,1.1,0,1.7,0l.3-2.4c-.9-.2-1.7-.3-2.6,0-.9.2-1.7.6-2.4,1.2-.7.5-1.2,1.2-1.6,1.9-.4.7-.6,1.5-.7,2.3,0,.8,0,1.6.2,2.4.2.8.6,1.6,1.2,2.3.6.7,1.2,1.3,1.9,1.8Z"/>
  <path class="st0" d="M126.8,53l1.2,13.4,2.4-1.2-.3-2.8c1.3-.7,3.5-1.8,4.7-2.4l2.1,1.9,2.4-1.2-10.1-8.8-2.3,1.2ZM129.7,60l-.6-5,3.7,3.4-3.2,1.6Z"/>
  <path class="st0" d="M142.8,48.9c.3-.2.6-.4,1.1-.5.5-.1,1-.2,1.6-.2.6,0,1.1,0,1.7.3l.2-2.3c-.6-.2-1.2-.3-2-.3-.7,0-1.4.1-2.1.3-1,.3-1.8.7-2.4,1.2-.6.5-1,1.1-1.1,1.8-.2.7-.2,1.3,0,2,.2.6.4,1.1.8,1.5.3.4.7.6,1.2.7.5.2.9.2,1.4.3.5,0,1,0,1.4,0,.5,0,.9,0,1.3,0,.4,0,.8,0,1,.2.3.1.5.3.6.7,0,.2,0,.5,0,.7,0,.2-.3.4-.5.6-.3.2-.7.4-1.2.5-.7.2-1.3.2-2,.2-.7,0-1.3-.2-1.9-.4l-.3,2.3c.6.3,1.3.4,2.2.4.9,0,1.7,0,2.6-.3h0c1-.3,1.8-.7,2.4-1.2.6-.5,1-1.1,1.1-1.8.2-.7.2-1.3,0-2-.2-.6-.4-1.1-.8-1.4-.4-.3-.7-.6-1.2-.7-.4-.1-.9-.2-1.4-.3-.5,0-1,0-1.5,0-.5,0-.9,0-1.3,0-.4,0-.7,0-1-.2-.3-.1-.5-.4-.6-.7,0-.3,0-.5,0-.7,0-.2.3-.5.5-.7Z"/>
  <rect class="st0" x="154.7" y="43.8" width="2.6" height="12.4" transform="translate(-5.3 21.4) rotate(-7.7)"/>
  <path class="st0" d="M171.4,55.4c.8-.3,1.4-.7,2-1.3.6-.6,1-1.2,1.4-2,.3-.8.5-1.6.5-2.6,0-.9-.1-1.8-.4-2.6-.3-.8-.7-1.5-1.2-2.1-.5-.6-1.2-1.1-1.9-1.4-.7-.3-1.5-.5-2.4-.5-.9,0-1.7.1-2.5.4-.8.3-1.4.7-2,1.3-.6.6-1,1.2-1.4,2-.3.8-.5,1.6-.5,2.6,0,.9,0,1.8.4,2.6.3.8.7,1.5,1.2,2.1.5.6,1.2,1.1,1.9,1.4s1.6.5,2.4.5h0c.9,0,1.7-.1,2.5-.4ZM167.6,53c-.4-.2-.8-.5-1.1-.9-.3-.4-.5-.8-.7-1.3s-.2-1-.2-1.6c0-.6.1-1.1.3-1.6.2-.5.4-.9.8-1.2.3-.4.7-.6,1.1-.8.4-.2.9-.3,1.4-.3.5,0,1,.1,1.4.3.4.2.8.5,1.1.9.3.4.6.8.7,1.3.2.5.2,1,.2,1.6,0,.6-.1,1.1-.3,1.6-.2.5-.5.9-.8,1.2s-.7.6-1.1.8c-.4.2-.9.3-1.4.3-.5,0-1-.1-1.4-.3Z"/>
  <polygon class="st0" points="183.9 49.7 187.6 58.4 189.7 58.9 192.6 46.9 190.1 46.2 188.3 53.6 184.7 44.9 182.6 44.4 179.6 56.5 182.1 57.1 183.9 49.7"/>
  <polygon class="st0" points="179.6 56.5 179.6 56.5 179.6 56.5 179.6 56.5"/>
  <path class="st0" d="M200.9,60.7c-.2.1-.5.2-.8.1-.3,0-.7-.2-1.2-.4-.6-.3-1.2-.7-1.7-1.2-.5-.5-.9-1-1.2-1.6l-1.7,1.6c.3.6.7,1.2,1.4,1.8.6.6,1.4,1.1,2.2,1.5h0c1,.5,1.8.7,2.6.6.8,0,1.5-.2,2-.6.6-.4,1-.9,1.3-1.5.3-.6.4-1.1.4-1.6s-.2-.9-.4-1.3c-.2-.4-.5-.8-.9-1.1-.3-.3-.7-.7-1.1-1-.4-.3-.7-.6-1-.8-.3-.3-.5-.5-.7-.8-.1-.3-.1-.6,0-.9.1-.2.3-.4.5-.6.2-.1.5-.2.8-.2.3,0,.7.1,1.2.3.5.2.9.5,1.3.9s.8.8,1.1,1.3l1.7-1.6c-.3-.5-.8-1-1.3-1.5-.5-.5-1.1-.8-1.8-1.1-1-.4-1.8-.7-2.6-.6-.8,0-1.5.2-2,.6-.6.4-1,.9-1.3,1.5-.3.6-.4,1.1-.4,1.6,0,.5.2.9.4,1.3s.5.8.9,1.1c.4.3.7.7,1.1,1,.4.3.7.6,1,.9s.5.5.7.8.1.6,0,.9c-.1.2-.3.4-.5.5Z"/>
</svg>