<?xml version="1.0" encoding="utf-8"?>
<!-- Generator: Adobe Illustrator 19.2.1, SVG Export Plug-In . SVG Version: 6.00 Build 0)  -->
<svg version="1.1" id="layer" xmlns="http://www.w3.org/2000/svg" xmlns:xlink="http://www.w3.org/1999/xlink" x="0px" y="0px"
	 viewBox="0 0 652 652" style="enable-background:new 0 0 652 652;" xml:space="preserve">
<polygon points="232.4,401.9 221.6,401.9 221.6,411.5 213,411.5 213,388.5 221.6,388.5 221.6,397.2 232.4,397.2 232.4,388.5 
	241,388.5 241,411.5 232.4,411.5 "/>
<polygon points="251.8,411.5 251.8,388.5 274.5,388.5 274.5,393.2 260.4,393.2 260.4,397.2 272,397.2 272,401.9 260.4,401.9 
	260.4,406.8 274.5,406.8 274.5,411.5 "/>
<polygon points="284.6,411.5 284.6,388.5 293.2,388.5 293.2,406.8 307.4,406.8 307.4,411.5 "/>
<polygon points="316.9,411.5 316.9,388.5 329.4,388.5 335.1,403.7 335.2,403.7 340.8,388.5 353.4,388.5 353.4,411.5 345.8,411.5 
	345.8,394.9 345.7,394.9 339.6,411.5 330.8,411.5 324.7,394.9 324.6,394.9 324.6,411.5 "/>
<polygon points="364.3,411.5 364.3,388.5 387,388.5 387,393.2 372.9,393.2 372.9,397.2 384.5,397.2 384.5,401.9 372.9,401.9 
	372.9,406.8 387,406.8 387,411.5 "/>
<polygon points="403.8,411.5 403.8,393.5 394.7,393.5 394.7,388.5 421.5,388.5 421.5,393.5 412.4,393.5 412.4,411.5 "/>
<g>
	<path d="M426,408.2c0-5.2,4.2-8.9,9.1-8.9c4.8,0,9,3.7,9,8.9c0,5.3-4.2,8.9-9,8.9C430.2,417.1,426,413.4,426,408.2 M435,415.5
		c3.9,0,7-3.1,7-7.3c0-4.2-3.1-7.3-7-7.3c-4,0-7,3.1-7,7.3C428,412.4,431,415.5,435,415.5 M433.2,413.3h-1.7v-10.2h3.9
		c2.4,0,3.7,0.9,3.7,2.9c0,1.8-1.1,2.6-2.7,2.8l2.8,4.5h-1.8l-2.6-4.4h-1.6V413.3z M435.1,407.5c1.2,0,2.4-0.1,2.4-1.6
		c0-1.2-1.2-1.5-2.2-1.5h-2v3.1H435.1z"/>
	<path d="M499,255.2c0-9.8,7.9-17.8,17.8-17.8c9.8,0,17.8,8,17.8,17.8c0,9.8-7.9,17.8-17.8,17.8C506.9,273,499,265,499,255.2"/>
	<path d="M320.2,190.9c-165.7,0-300,58.6-300,131c0,72.3,134.3,131,300,131c160.3,0,300-57.7,300-131
		C620.2,251.7,505,190.9,320.2,190.9 M320,439.8c-94.9,0-172.4-26-214.6-60.5c-1.3-1.1-4-2-6.7-1.2c-10.7,3.3-36.4-0.3-40.3-5.1
		c-0.9-1.1-1.1-4.2-0.4-5.3c2.6-4.5,11.1-16.6,13.9-19.9c1.6-1.9,1.9-4.4,1.1-6.4c-2.3-5.8-2.8-11.9-2.8-17.6
		c0-57.9,112-116.2,249.8-116.2c68.3,0,129.5,13.1,174.5,33.9c1,0.5,3.9,0.1,4.4-0.5c4.1-4.9,10.9-8.3,17.8-8.3
		c12.4,0,22.5,10.1,22.5,22.5c0,3.2-0.7,6.3-1.9,9c-0.3,0.6,0.2,3.6,0.8,4.1c19.7,16.6,31,35,31,55.3
		C569.2,387.8,457.6,439.8,320,439.8"/>
	<path d="M543,326.3c-4.7,5.1-18.2,13.5-18.2,13.5c-4.9,2.4-6.9-1.5-6.1-5.1c0.8-3.6,15.8-59.1,15.8-59.1H492l-14.7,57.2
		c0,0-7.3,6.8-14.6,10.8c-7.3,4-8.5,0.4-7.7-3.2c0.8-3.6,16.7-64.8,16.7-64.8h-40.9l-1.2,4.8c-2-4-13.8-10-23.1-10
		c-9.3,0-17,5.6-20.7,8.4c-3.6,2.8-13,8.8-21.9,8.8c-8.9,0-20.3-12.9-20.3-12.9l-16.6,13.7l3.6-12.4h-41.3l-17.3,53
		c0,0-20.7,13.3-23.1,14.5c-2.4,1.2-4.9,1.2-4-3.2c0.8-4.4,30.4-118.9,30.4-118.9h-41.7c-53.5,62.7-92.8,115.9-116.2,118.1
		c-11.8,1.1-17.7,1.3-29-3.6c-2-0.9-3.3,0.7-3.3,0.7l-21.3,28.9c0,0-1.7,2.6,0.7,3.7c42.8,16.5,85.5-26.8,97.4-39H204
		c0,0-2.4,8-5.7,21.3c-3.8,15.4,6.9,22.9,19.8,22.9c17.8,0,46.6-23.3,46.6-23.3l-6.1,23.7h43.7l19.3-68.7c16.2,12.3,32.5,6,32.5,6
		c-2.4,3.6-8.1,23.3-8.1,31.7c0,8.4,8.5,29.7,32,29.7c23.5,0,33.2-14.9,33.2-14.9s-0.8,16.1,15.8,16.1c16.6,0,44.6-17.7,44.6-17.7
		s-0.8,17.3,17,17.3c30.4,0,51.2-34,55.9-43.4C548.1,324.2,544.8,324.4,543,326.3 M210.8,315.1h-34l50.6-56.4L210.8,315.1z
		 M425.3,301.9c0,0-2.2,10.3-6.5,25.4s-13.5,14.6-16.7,14.6s-11.3,0-11.3-15.7c0-19.5,20-37.9,28.1-37.9
		C426.9,288.4,426.4,296.5,425.3,301.9"/>
</g>
</svg>
