<svg width="590" height="590" viewBox="0 0 590 590" fill="none" xmlns="http://www.w3.org/2000/svg">
<path d="M2.16586 289.77C-0.721954 292.658 -0.721954 297.341 2.16586 300.229L289.772 587.833C292.66 590.722 297.341 590.722 300.229 587.833L587.834 300.229C590.722 297.341 590.722 292.658 587.834 289.77L300.229 2.16586C297.341 -0.721952 292.66 -0.721952 289.772 2.16586L2.16586 289.77Z" fill="white"/>
<path d="M287.229 496.25L276.772 506.707C275.329 508.153 275.329 510.492 276.772 511.938L287.229 522.395C288.675 523.838 291.017 523.838 292.459 522.395C293.903 520.952 302.917 511.938 302.917 511.938C304.36 510.494 304.36 508.153 302.917 506.707C302.917 506.707 293.903 497.693 292.459 496.25C291.014 494.804 288.675 494.804 287.229 496.25ZM372.762 338.188C382.247 349.686 393.538 364.954 407.221 386.109C409.44 389.534 410.794 387.554 411.304 386.072C413.247 380.267 412.598 363.38 407.555 342.398C406.19 336.661 405.786 335.864 401.958 334.835C393.7 332.613 377.807 332.428 373.435 334.695C371.364 335.749 372.762 338.188 372.762 338.188ZM203.563 412.583L193.105 423.042C191.66 424.485 191.66 426.826 193.105 428.271L206.177 441.343L221.865 425.655C221.865 425.655 210.236 414.027 208.793 412.583C207.347 411.139 205.006 411.139 203.563 412.583ZM177.418 381.208L164.345 368.135L148.657 383.822C148.657 383.822 160.285 395.451 161.73 396.896C163.173 398.339 165.515 398.339 166.958 396.896L177.418 386.436C178.861 384.993 178.861 382.651 177.418 381.208ZM276.947 250.745C279.006 251.255 280.313 253.047 279.908 254.77C279.479 256.494 277.478 257.477 275.43 256.98C273.395 256.494 272.076 254.689 272.481 252.966C272.908 251.242 274.909 250.258 276.947 250.745ZM275.834 246.488C269.335 246.488 263.748 253.972 263.391 263.191C263.021 272.421 267.993 279.893 274.493 279.916C281.007 279.928 286.603 272.456 286.975 263.226C287.333 253.984 282.347 246.5 275.834 246.488ZM412.658 203.488C411.212 204.933 411.212 207.274 412.658 208.717L425.731 221.791L441.418 206.104C441.418 206.104 429.788 194.474 428.346 193.03C426.9 191.586 424.559 191.586 423.115 193.031L412.658 203.488ZM512.011 302.842C513.457 301.399 522.47 292.384 522.47 292.384C523.914 290.941 523.914 288.599 522.47 287.155C522.47 287.155 513.457 278.141 512.011 276.698C510.568 275.253 508.227 275.253 506.782 276.698C506.782 276.698 497.769 285.712 496.324 287.155C494.88 288.599 494.88 290.941 496.324 292.384L506.782 302.842C508.227 304.287 510.568 304.287 512.011 302.842ZM519.855 315.916C514.078 321.691 504.715 321.691 498.938 315.916L483.252 300.228C477.476 294.452 477.476 285.088 483.252 279.312L498.938 263.624C504.715 257.849 514.078 257.848 519.855 263.624L535.543 279.312C541.32 285.088 541.32 294.452 535.543 300.228L519.855 315.916ZM424.303 327.801C416.564 302.066 401.749 275.036 382.85 253.314C374.949 244.233 348.948 222.581 348.948 222.581C348.948 222.581 349.988 220.776 347.177 217.11C343.061 211.767 331.841 207.232 321.754 204.849C278.518 194.602 261.088 209.512 243.876 229.45C234.52 240.289 226.493 255.094 214.208 270.755C212.509 262.277 212.405 252.874 215.054 242.59C219.25 226.34 222.074 213.709 223.995 203.901L295 132.893L457.104 295L424.303 327.801ZM467.564 284.54L457.104 274.083L480.636 250.551C482.082 249.107 482.082 246.765 480.636 245.322L467.564 232.249L441.418 258.395L430.959 247.937L467.564 211.332L493.71 237.478C499.485 243.254 499.485 252.62 493.71 258.395C487.933 264.171 467.564 284.54 467.564 284.54ZM425.731 242.708L399.584 216.561C393.809 210.786 393.809 201.42 399.584 195.644L415.271 179.957C421.048 174.181 430.413 174.181 436.19 179.957L462.335 206.104L425.731 242.708ZM383.896 200.874L357.751 174.729C351.974 168.952 351.974 159.587 357.751 153.812L373.439 138.124C379.216 132.347 388.579 132.347 394.356 138.124L410.043 153.81C415.818 159.587 415.818 168.953 410.043 174.729C410.043 174.729 387.955 152.64 386.512 151.197C385.067 149.753 382.726 149.753 381.283 151.197L370.824 161.654C369.38 163.099 369.38 165.44 370.824 166.885L394.356 190.416L383.896 200.874ZM342.063 159.041L315.917 132.893C310.141 127.118 310.141 117.753 315.917 111.978C321.693 106.202 342.063 85.8329 342.063 85.8329L352.52 96.2901L328.989 119.822C327.547 121.266 327.547 123.608 328.989 125.051C330.435 126.494 342.063 138.124 342.063 138.124L368.208 111.978L378.667 122.436L342.063 159.041ZM326.375 91.0608L313.302 77.9877L287.156 104.134L276.699 93.6754L302.844 67.5292L289.772 54.4574L300.231 43.9976L336.835 80.6037L326.375 91.0608ZM264.617 238.392C278.831 229.197 285.296 232.262 294.492 230.514C301.397 229.232 304.913 228.56 310.789 226.063C281.25 247.346 303.513 279.142 286.536 293.575C294.482 300.829 299.256 319.739 297.986 324.714L286.42 322.956C282.369 322.608 260.661 312.811 255.086 310.89C250.818 303.478 244.34 251.498 264.617 238.392ZM232.595 314.69C233.224 314.691 233.927 314.691 234.685 314.691C237.723 314.686 241.989 314.683 245.919 314.975C244.522 316.635 240.683 320.345 232.87 322.459C229.557 323.353 232.343 324.081 235.054 323.938C240.583 323.653 250.681 318.797 252.777 316.021C252.799 316.028 252.823 316.033 252.846 316.038C254.097 316.41 259.137 318.613 263.584 320.556C276.07 326.014 282.437 328.686 285.628 329.117L288.495 329.6L287.051 331.06C286.278 331.725 272.125 343.58 260.301 338.249C255.609 336.132 249.456 335.508 242.332 334.786C228.151 333.348 210.511 331.563 194.758 317.821C194.665 317.739 194.571 317.653 194.473 317.563L194.467 317.559C192.63 315.813 190.402 312.559 188.253 308.945C198.093 311.732 212.938 314.592 232.595 314.69ZM180.631 307.688C173.68 314.061 167.179 319.219 161.21 323.313L132.896 295L150.071 277.824C156.653 290.048 163.998 300.284 180.018 306.542C180.215 306.924 180.421 307.295 180.631 307.688ZM83.2911 339.374L57.1462 313.228C51.3692 307.452 51.3692 298.086 57.1462 292.311L83.2911 266.166L93.7496 276.624L70.218 300.156C68.7748 301.599 68.7748 303.941 70.218 305.384C71.6626 306.828 83.2911 318.458 83.2911 318.458L109.437 292.311L119.897 302.771L83.2911 339.374ZM125.125 308L151.27 334.146C157.047 339.922 157.047 349.286 151.27 355.062L125.125 328.917L98.9789 355.062L88.5217 344.603L125.125 308ZM174.802 336.761L185.262 347.218L174.802 357.676L190.489 373.364C196.266 379.14 196.266 388.505 190.489 394.28L174.802 409.967C169.027 415.744 159.663 415.744 153.886 409.967L127.741 383.822L174.802 336.761ZM212.751 374.854C214.164 366.689 217.078 359.447 219.586 353.978C221.714 349.35 225.221 344.157 229.188 339.033C241.552 340.849 252.25 340.468 258.452 343.128C272.632 349.234 287.829 337.228 290.64 334.764C291.972 349.35 293.451 371.396 290.966 391.349C288.986 407.021 282.105 425.029 271.127 433.231L212.751 374.854ZM195.719 399.51C201.496 393.733 210.86 393.733 216.634 399.51L242.781 425.655L206.177 462.261L180.032 436.115C174.255 430.338 174.255 420.972 180.032 415.198L195.719 399.51ZM248.01 430.886L274.158 457.031C279.932 462.808 279.932 472.172 274.156 477.949L248.01 504.094L237.553 493.635L261.084 470.104C262.528 468.659 262.528 466.32 261.084 464.874C259.641 463.431 248.01 451.801 248.01 451.801L221.865 477.949L211.406 467.489L248.01 430.886ZM295 457.104L285.146 447.25C291.231 433.971 296.435 415.72 298.529 390.769C301.237 358.292 295.059 334.51 299.407 327.964C300.923 328.761 332.359 342.733 372.069 380.035L295 457.104ZM409.568 408.211C382.235 363.924 298.541 296.815 298.541 296.815C298.541 296.815 308.602 284.254 308.498 264.649C308.405 246.303 326.589 229.324 338.48 230.411C342.714 230.782 366.401 247.922 377.147 259.432C417.654 302.829 422.337 345.106 424.12 359.934C428.029 392.597 413.166 407.137 409.568 408.211ZM279.385 483.175C285.162 477.401 294.527 477.401 300.301 483.175L315.99 498.863C321.766 504.64 321.766 514.005 315.99 519.781L300.301 535.469C294.527 541.243 285.162 541.246 279.385 535.469L263.698 519.781C257.923 514.005 257.923 504.64 263.698 498.863L279.385 483.175ZM295.003 572.145L572.149 295L295 17.8527L211.039 101.815C215.423 107.911 227.152 133.219 220.259 153.091C220.119 153.459 219.981 153.853 219.818 154.222C210.623 139.545 194.061 134.271 182.61 130.244L178.109 134.744C187.548 138.677 212.23 142.194 220.871 170.59C225.093 184.434 214.961 221.24 210.186 240.938C201.959 274.861 218.604 299.092 226.632 309.434C224.745 309.399 222.907 309.34 221.125 309.248C216.753 306.102 209.501 299.36 201.856 285.746C201.856 285.746 196.085 275.208 193.284 268.314C189.502 258.98 187.095 250.931 181.046 231.279C177.647 220.221 172.835 212.102 167.411 206.121C153.345 190.878 135.452 189.686 127.576 189.558L123.377 189.477L117.801 195.053C127.784 194.392 150.674 195.562 164.484 212.565C170.047 219.331 174.859 228.607 178.052 241.354C182.146 257.732 192.902 282.553 200.339 296.261C199.01 294.813 197.772 293.253 196.616 291.61C196.616 291.61 195.124 289.563 194.43 288.475C193.029 286.266 191.597 284.184 190.15 282.229C168.346 253.302 143.48 251.312 140.183 251.809C177.832 267.573 190.034 293.495 198.651 306.507C193.249 305.293 187.592 303.777 182.123 301.847C167.063 296.548 160.008 284.382 152.283 269.831C149.215 264.036 145.077 257.951 139.881 252.064C139.812 251.972 139.755 251.891 139.675 251.809C129.785 240.765 115.626 230.884 98.2779 224.061C97.3984 223.715 96.5175 223.391 95.63 223.055C95.2582 222.917 94.8877 222.777 94.5279 222.651C93.719 222.326 92.1132 221.852 91.2896 221.564L17.8535 294.999L295.003 572.145Z" fill="black"/>
</svg>
