<?xml version="1.0" encoding="utf-8"?>
<!-- Generator: Adobe Illustrator 19.2.1, SVG Export Plug-In . SVG Version: 6.00 Build 0)  -->
<svg version="1.1" id="layer" xmlns="http://www.w3.org/2000/svg" xmlns:xlink="http://www.w3.org/1999/xlink" x="0px" y="0px"
	 viewBox="0 0 652 652" style="enable-background:new 0 0 652 652;" xml:space="preserve">
<path d="M578.7,301.6l-63,0l-60.4,57.7h-35.4l60.4-57.7h-64.7l20.2-19.4h164.4L578.7,301.6z M295.6,301.6l-9.9,9.6h70
	c5,0,9.8-0.8,15.2,1.5c7.4,3.1,9,10.2,3,16.1c-6.7,6.5-12.8,12.4-21.4,20.4c-4.6,4.3-14.8,10-31.4,10l-120.4,0l20.2-19.3h107.4
	l10-9.5l-72.4,0c-21,0-24.3-10.3-16.2-18c6.7-6.3,11.8-11.3,21.4-20.6c3.9-3.8,11.1-8.5,23.7-9.7h128.7l-20.2,19.3L295.6,301.6z
	 M212.7,336.7l-12.4,11.8l-11.5-10.1c3.6,0,6.5,0,8.5,0C202.9,338.4,208,337.8,212.7,336.7 M242.8,332h-18.2
	c2.7-1.5,5.1-3.4,7.5-5.6c1.9-1.7,3.7-3.4,5.4-5c0.1,1.5,0.4,3,1,4.5C239.2,327.7,240.5,329.9,242.8,332 M165.1,359.3l-32.9-28.9
	l-13.8,0.1l20-19.3h63.4l10.1-9.6h-75l-60.3,57.6H41.2l80.6-77h109.7c5,0,12.3,0.2,15.4,2.4c5.8,3.7,6.9,9.7,2,14.6
	c-6,6-13.6,13.1-22.3,21.2c-4.6,4.3-12.7,9.8-29.4,9.8c-5.3,0-16.6,0-29.8,0l33,28.9H165.1z M443.3,274.3H294.3l-0.4,0
	c-11.9,1.1-21.5,5.1-28.5,11.9c-2,1.9-3.7,3.6-5.3,5.2c0-0.1,0-0.3,0-0.4c-0.6-5.2-3.6-9.7-8.6-12.9c-3.9-2.7-9.7-3.8-19.9-3.8
	H118.6l-97.4,93.1h58.6l30.1-28.7l19.3-0.1l32.9,28.8h59.7l0,0l99.3,0c21.6,0,33-8.5,36.9-12.1c8.8-8.3,14.9-14,21.5-20.5
	c4.8-4.7,6.9-10.7,5.8-16.3c-0.6-3.3-2.3-6.2-4.7-8.6h15h0h64.7l-60.4,57.7h58.6l60.4-57.7h62.8l39.4-35.4L443.3,274.3z"/>
</svg>
